<?xml version="1.0" encoding="UTF-8" standalone="no"?>
<svg
   xmlns:dc="http://purl.org/dc/elements/1.1/"
   xmlns:cc="http://creativecommons.org/ns#"
   xmlns:rdf="http://www.w3.org/1999/02/22-rdf-syntax-ns#"
   xmlns:svg="http://www.w3.org/2000/svg"
   xmlns="http://www.w3.org/2000/svg"
   viewBox="0 0 377.94666 188.97333"
   height="188.97333"
   width="377.94666"
   xml:space="preserve"
   id="svg2"
   version="1.1"><metadata
     id="metadata8"><rdf:RDF><cc:Work
         rdf:about=""><dc:format>image/svg+xml</dc:format><dc:type
           rdf:resource="http://purl.org/dc/dcmitype/StillImage" /></cc:Work></rdf:RDF></metadata><defs
     id="defs6" /><g
     transform="matrix(1.3333333,0,0,-1.3333333,0,188.97333)"
     id="g10"><g
       transform="scale(0.1)"
       id="g12"><path
         id="path14"
         style="fill:#050301;fill-opacity:1;fill-rule:nonzero;stroke:none"
         d="M 1.54297,627.754 V 543.008 H 2727.26 v 84.746 z M 2604.94,310.738 c 36.16,0 58.25,-13.5 58.25,-40.476 v -25.364 c 0,-26.968 -22.09,-40.437 -58.25,-40.437 h -53.41 v 106.277 z m 0,-166.718 h 3.21 l 52.91,-125.6997 c 3.76,-8.60936 5.89,-14.01171 13.48,-14.01171 h 47.45 c 9.7,0 16.2,5.40235 12.43,14.01171 l -58.25,135.9607 c 43.14,15.649 59.34,45.867 59.34,77.688 v 51.25 c 0,45.332 -32.94,87.929 -130.57,87.929 h -113.29 c -9.72,0 -12.93,-4.308 -12.93,-14.019 V 18.3203 c 0,-9.71092 3.21,-14.01171 12.93,-14.01171 h 46.9 c 9.72,0 12.98,4.30079 12.98,14.01171 V 144.02 Z m -270.28,-2.688 h -68.51 l 18.38,60.43 c 6.44,22.66 15.6,90.617 16.7,97.629 0.54,-7.012 8.66,-76.059 15.65,-98.18 z m -55.53,229.816 c -9.71,0 -14.02,-4.308 -16.74,-13.468 L 2161.53,17.8008 c -2.73,-8.64064 0.5,-13.49221 10.25,-13.49221 h 43.69 c 9.71,0 13.48,4.85157 16.16,13.49221 l 18.91,65.8086 h 100.32 l 18.87,-65.8086 c 2.73,-8.64064 6.5,-13.49221 15.66,-13.49221 h 48.54 c 9.22,0 12.43,4.85157 9.71,13.49221 L 2343.33,357.68 c -2.73,9.16 -7.58,13.468 -17.29,13.468 z M 2117.84,4.30859 c 9.7,0 13.52,3.76172 13.52,13.49221 v 33.9883 c 0,9.6992 -3.82,12.9297 -13.52,12.9297 H 1987.86 V 165.082 h 115.42 c 9.7,0 14.06,3.758 14.06,12.949 v 32.348 c 0,9.73 -4.36,12.953 -14.06,12.953 h -115.42 v 87.406 h 124.63 c 9.17,0 13.47,3.762 13.47,13.473 v 34.008 c 0,9.711 -4.3,12.929 -13.47,12.929 h -184.53 c -9.7,0 -12.93,-4.308 -12.93,-14.019 V 18.3203 c 0,-9.71092 3.23,-14.01171 12.93,-14.01171 z M 1714.41,357.68 c -2.18,8.621 -6.48,13.468 -16.2,13.468 h -43.69 c -9.71,0 -14.02,-4.847 -16.19,-13.468 l -46.37,-183.989 c -7.04,-27.511 -9.72,-45.293 -9.72,-45.293 0,0 -3.76,25.332 -8.61,45.293 L 1528.3,357.68 c -2.18,8.621 -6.49,13.468 -15.65,13.468 h -48.01 c -9.7,0 -12.43,-4.847 -10.25,-13.468 l 85.75,-339.8792 c 2.18,-8.64064 7.03,-13.49221 15.11,-13.49221 h 45.87 c 9.71,0 14.56,4.30079 16.75,13.49221 l 47.45,187.7302 c 2.67,10.789 7.03,43.707 7.53,49.11 0.54,-5.95 4.36,-37.231 7.58,-49.11 l 47.46,-187.7302 c 2.17,-8.64064 7.03,-13.49221 15.1,-13.49221 h 45.87 c 9.17,0 14.56,4.30079 16.75,13.49221 l 85.74,339.8792 c 2.18,8.621 -0.54,13.468 -10.25,13.468 h -40.97 c -9.21,0 -13.52,-4.847 -15.65,-13.468 l -46.42,-183.989 c -5.94,-23.722 -9.16,-49.082 -9.7,-52.851 -0.55,4.851 -4.31,35.07 -8.63,53.398 z M 1207.9,190.961 1320.65,357.68 c 4.85,7.011 3.26,13.468 -6.45,13.468 h -50.18 c -9.71,0 -16.74,-5.918 -21.6,-13.468 l -96,-145.121 h -8.67 V 357.68 c 0,9.16 -3.22,13.468 -12.93,13.468 h -46.96 c -9.71,0 -12.93,-4.308 -12.93,-13.468 V 17.8008 c 0,-9.19142 3.22,-13.49221 12.93,-13.49221 h 46.96 c 9.71,0 12.93,4.30079 12.93,13.49221 V 159.129 h 9.17 L 1248.37,17.8008 c 4.85,-6.4805 10.25,-13.49221 19.42,-13.49221 h 59.89 c 9.71,0 11.84,7.01171 6.98,13.49221 z M 889.078,310.738 c 36.16,0 58.305,-13.5 58.305,-40.476 v -25.364 c 0,-26.968 -22.145,-40.437 -58.305,-40.437 H 835.68 v 106.277 z m 0,-166.718 h 3.27 L 945.207,18.3203 c 3.762,-8.60936 5.941,-14.01171 13.469,-14.01171 h 47.504 c 9.71,0 16.15,5.40235 12.39,14.01171 L 960.313,154.281 c 43.147,15.649 59.347,45.867 59.347,77.688 v 51.25 c 0,45.332 -32.898,87.929 -130.582,87.929 H 775.785 c -9.707,0 -12.93,-4.308 -12.93,-14.019 V 18.3203 c 0,-9.71092 3.223,-14.01171 12.93,-14.01171 h 46.965 c 9.707,0 12.93,4.30079 12.93,14.01171 V 144.02 Z M 641.543,100.879 c 0,-26.9688 -22.145,-40.4688 -58.258,-40.4688 -36.16,0 -57.758,13.5 -57.758,40.4688 v 173.703 c 0,26.969 21.598,40.469 57.758,40.469 36.113,0 58.258,-13.5 58.258,-40.469 z M 452.164,87.9219 C 452.164,42.6016 485.648,0 583.285,0 680.922,0 714.359,42.6016 714.359,87.9219 V 287.531 c 0,45.328 -33.437,87.93 -131.074,87.93 -97.637,0 -131.121,-42.602 -131.121,-87.93 z M 260.703,357.68 c -2.129,8.621 -6.441,13.468 -16.148,13.468 h -43.692 c -9.711,0 -14.066,-4.847 -16.199,-13.468 L 138.246,173.691 c -6.98,-27.511 -9.707,-45.293 -9.707,-45.293 0,0 -3.762,25.332 -8.617,45.293 L 74.5938,357.68 c -2.129,8.621 -6.4375,13.468 -15.6524,13.468 H 10.9375 c -9.70703,0 -12.38281,-4.847 -10.253906,-13.468 L 86.4844,17.8008 C 88.6133,9.16016 93.4688,4.30859 101.594,4.30859 h 45.82 c 9.711,0 14.613,4.30079 16.742,13.49221 l 47.457,187.7302 c 2.723,10.789 7.035,43.707 7.578,49.11 0.547,-5.95 4.313,-37.231 7.532,-49.11 L 274.23,17.8008 c 2.129,-8.64064 6.981,-13.49221 15.106,-13.49221 h 45.82 c 9.215,0 14.567,4.30079 16.742,13.49221 L 437.699,357.68 c 2.129,8.621 -0.547,13.468 -10.254,13.468 h -41.019 c -9.16,0 -13.473,-4.847 -15.649,-13.468 L 324.41,173.691 c -5.945,-23.722 -9.215,-49.082 -9.711,-52.851 -0.543,4.851 -4.355,35.07 -8.668,53.398 z M 2819.85,1359.47 c -7.16,-7.05 -20.62,-14.2 -45.84,-26.22 -8.62,-4.01 -22.55,-14.63 -28.01,-18.66 -26.99,-20.79 -46.59,-67.49 -68.39,-118.71 0,0 -9.38,-25.27 -50.27,-52.42 -7.11,-4.52 -0.7,-8.27 6.91,-17.93 9.47,-12.62 28.83,-64.81 26.46,-143.995 -0.6,-13.82 5.28,-20.074 11.59,-31.492 11.11,-19.941 32.94,-15.508 32.4,-41.605 -0.55,-34.809 25.11,-42.45 16.7,-58.379 -5.85,-11.856 -3.86,-23.36 -3.75,-34.649 0,-5.922 3.13,-14.34 -8.97,-13.652 -49.04,2.789 -45.66,68.726 -45.02,91.605 1.07,2.938 -1.34,8.129 -1.74,8.489 -2.28,1.742 -32.93,25.503 -34.95,27.695 -37.23,37.75 -61.68,71.523 -75.5,106.583 -8.94,23.3 -18.34,46.38 -34.13,60.78 -18.07,16.56 -40.05,25.57 -59.2,25.78 -136.56,0.73 -164.67,60.69 -201.98,90.53 -1.1,0.83 -4.57,2.64 -6.37,2.94 -2.07,-0.3 -3.88,-2.64 -5.1,-3.66 -14.38,-15.11 -28.85,-20.12 -48.37,-20.12 -46.06,0 -95.7,40.46 -104.48,31.46 -6.69,-6.98 -0.9,-21.53 -13.2,-23.91 -17.78,-3.43 -36.11,14 -34.72,28.8 2.64,26.7 29.88,34.42 53.78,37.02 19.86,2.08 35.82,-3.18 39.51,-3.64 11.17,-1.59 13.05,11.84 11.17,20.31 -1.97,9.45 -10.68,11.38 -19.71,14.12 -11.04,3.26 -23.38,-5.83 -31.86,-2.97 -9.5,3.38 -10.1,8.32 -18.3,15.41 -10.23,8.82 -22.03,11.28 -22.03,23.85 0.19,11.48 14.12,12.6 18.31,23.28 1.95,5.07 1.3,10.74 3.11,14.02 4.92,8.69 13.72,8.26 20.93,15.32 9.91,9.68 14.76,28.51 19.77,29.23 5.03,0.82 13.66,-17.99 18.63,-16.21 5.43,1.66 13.03,17.47 20.33,16.6 3.07,-0.39 15.38,-25.36 15.38,-25.36 100.38,-4.94 223.72,-126.27 239.8,-138.47 7.73,-5.95 39.85,-39.58 99.4,-65.6 24.35,-10.71 48.79,-15.07 71.41,-13.55 30.5,2.12 64.34,28.78 85.03,65.07 26.13,45.26 37.29,124.02 112.58,168.89 10.55,6.17 34.54,20.4 48.4,2.67 11.22,-14.25 2.05,-38.08 -9.71,-49.25 z m -838.12,-557.63 -0.01,560.11 c 0.02,30.74 -24.6,55.22 -55.05,55.25 l -285.16,-0.13 c -30.46,0.04 -55,-24.42 -55.02,-55.16 l 0.13,-560.156 168.89,0.098 0.05,154.488 57.33,-0.11 0.01,-154.371 z m -226.58,230.64 -0.02,282.93 c 0.58,15.72 13.37,28.2 28.79,28.16 15.48,0.08 28.49,-12.13 28.91,-27.75 l -0.01,-283.33 z M 342.59,956.207 c 30.613,0.035 55.258,24.723 55.226,55.333 l -0.027,350.15 c 0.066,30.85 -23.605,55.31 -54.219,55.28 L 2.69922,1416.91 2.78516,801.715 171.633,801.699 171.563,956.234 342.59,956.207 M 229.191,1061.46 c -0.058,-17.32 -13.781,-29.11 -28.808,-29.12 h -28.828 l 0.043,311.31 28.828,0.01 c 14.75,-0.01 28.695,-11.95 28.672,-28.88 z m 989.019,355.63 -255.444,0.04 c -30.227,-0.08 -54.938,-24.59 -54.836,-55.37 l 0.058,-560.002 168.842,-0.016 -0.06,513.958 c 0.36,15.55 13.26,28.26 28.79,28.17 15.43,-0.03 28.65,-12.07 28.81,-27.98 l 0.01,-514.077 168.45,0.023 -0.01,514.074 c 0.24,15.88 12.76,28.06 28.58,27.99 15.7,-0.02 28.39,-12.63 28.86,-28.15 l 0.06,-513.957 168.85,-0.016 -0.13,560.163 c 0.02,30.73 -24.33,55.22 -54.78,55.25 z M 652.672,875.676 c 15.445,0.637 28.695,12.91 28.711,28.609 l -0.059,512.735 169.285,0.05 0.075,-565.183 c 0.011,-27.606 -22.446,-50.125 -50.211,-50.196 l -295.614,0.024 c -27.324,0 -49.558,22.465 -49.574,50.066 l -0.074,565.189 168.894,0.1 -0.101,-512.789 c -0.02,-15.703 13.101,-27.961 28.668,-28.605" /></g></g></svg>